<svg width="20" height="20" viewBox="0 0 20 20" fill="none" xmlns="http://www.w3.org/2000/svg">
<path d="M10 1C5.02943 1 1 5.02943 1 10C1 14.9705 5.02943 19 10 19C14.9705 19 19 14.9705 19 10C19 5.02943 14.9705 1 10 1Z" stroke="#A3A3A3" stroke-width="2" stroke-linecap="round" stroke-linejoin="round"/>
<path d="M3.04388 15.7112C3.04388 15.7112 5.05 13.15 9.99998 13.15C14.95 13.15 16.9562 15.7112 16.9562 15.7112" stroke="#A3A3A3" stroke-width="2" stroke-linecap="round" stroke-linejoin="round"/>
<path d="M9.99999 9.99998C11.4912 9.99998 12.7 8.79119 12.7 7.29998C12.7 5.80881 11.4912 4.59998 9.99999 4.59998C8.50878 4.59998 7.29999 5.80881 7.29999 7.29998C7.29999 8.79119 8.50878 9.99998 9.99999 9.99998Z" stroke="#A3A3A3" stroke-width="2" stroke-linecap="round" stroke-linejoin="round"/>
</svg>
