<svg width="47" height="34" viewBox="0 0 47 34" fill="none" xmlns="http://www.w3.org/2000/svg">
<g id="&#240;&#159;&#166;&#134; icon &#34;youtube&#34;">
<path id="Vector" d="M27.352 17.0002L19.9576 21.2255V12.7749L27.352 17.0002Z" fill="#FECF5D" stroke="black" stroke-width="4" stroke-linecap="round" stroke-linejoin="round"/>
<path id="Vector_2" d="M2 18.4948V15.5052C2 9.38829 2 6.32988 3.91299 4.362C5.82601 2.39412 8.83776 2.30893 14.8612 2.13857C17.7155 2.05784 20.6311 2 23.1266 2C25.6221 2 28.5378 2.05784 31.392 2.13857C37.4154 2.30893 40.4272 2.39412 42.3402 4.362C44.2532 6.32988 44.2532 9.38829 44.2532 15.5052V18.4948C44.2532 24.6116 44.2532 27.6701 42.3402 29.6378C40.4272 31.6058 37.4156 31.6909 31.3922 31.8614C28.5378 31.9421 25.6221 32 23.1266 32C20.6311 32 17.7154 31.9421 14.861 31.8614C8.83765 31.6909 5.82597 31.6058 3.91297 29.6378C2 27.6701 2 24.6116 2 18.4948Z" stroke="black" stroke-width="4"/>
</g>
</svg>
