<svg width="34" height="34" viewBox="0 0 34 34" fill="none" xmlns="http://www.w3.org/2000/svg">
<g id="&#240;&#159;&#166;&#134; icon &#34;instagram&#34;">
<path id="Vector" d="M17 23.6666C20.6819 23.6666 23.6667 20.6818 23.6667 16.9999C23.6667 13.318 20.6819 10.3333 17 10.3333C13.3181 10.3333 10.3334 13.318 10.3334 16.9999C10.3334 20.6818 13.3181 23.6666 17 23.6666Z" stroke="black" stroke-width="4" stroke-linecap="round" stroke-linejoin="round"/>
<path id="Vector_2" d="M2 23.6667V10.3333C2 5.73097 5.73097 2 10.3333 2H23.6667C28.269 2 32 5.73097 32 10.3333V23.6667C32 28.269 28.269 32 23.6667 32H10.3333C5.73097 32 2 28.269 2 23.6667Z" stroke="black" stroke-width="4"/>
<path id="Vector_3" d="M26.1666 7.85006L26.1833 7.83154" stroke="black" stroke-width="4" stroke-linecap="round" stroke-linejoin="round"/>
</g>
</svg>
